<?xml version="1.0" encoding="utf-8"?>
<!-- Generator: Adobe Illustrator 16.0.4, SVG Export Plug-In . SVG Version: 6.00 Build 0)  -->
<!DOCTYPE svg PUBLIC "-//W3C//DTD SVG 1.1//EN" "http://www.w3.org/Graphics/SVG/1.1/DTD/svg11.dtd">
<svg version="1.1" id="Layer_1" xmlns="http://www.w3.org/2000/svg" xmlns:xlink="http://www.w3.org/1999/xlink" x="0px" y="0px"
	 width="1024px" height="1024px" viewBox="0 0 1024 1024" enable-background="new 0 0 1024 1024" xml:space="preserve">
<path fill="#009688" d="M320,256c35.346,0,64,28.654,64,64s-28.654,64-64,64c-35.346,0-64-28.654-64-64S284.654,256,320,256z
	 M960,768c0,106.039-85.961,192-192,192H320l192-192h81.128c22.132,38.258,63.494,64,110.872,64c70.692,0,128-57.308,128-128
	s-57.308-128-128-128c-47.377,0-88.74,25.742-110.872,64H448L156.044,931.956C100.845,898.232,64,837.42,64,768V256
	c0-106.039,85.961-192,192-192v145.128C217.742,231.26,192,272.623,192,320c0,70.692,57.308,128,128,128
	c47.276,0,88.56-25.633,110.727-63.756l162.416-0.219C615.279,422.269,656.633,448,704,448c70.692,0,128-57.308,128-128
	s-57.308-128-128-128c-47.388,0-88.758,25.753-110.887,64.025l-162.098,0.219c-11.246-19.54-27.503-35.828-47.016-47.116V64h384
	c106.039,0,192,85.961,192,192V768z M640,704c0-35.346,28.654-64,64-64s64,28.654,64,64s-28.654,64-64,64S640,739.346,640,704z
	 M640,320c0-35.346,28.654-64,64-64s64,28.654,64,64s-28.654,64-64,64S640,355.346,640,320z"/>
</svg>
